<!DOCTYPE svg PUBLIC "-//W3C//DTD SVG 20010904//EN" "http://www.w3.org/TR/2001/REC-SVG-20010904/DTD/svg10.dtd">
<svg version="1.0" xmlns="http://www.w3.org/2000/svg" width="1280px" height="820px" viewBox="0 0 12800 8200" preserveAspectRatio="xMidYMid meet">
<g id="layer101" fill="#161413" stroke="none">
 <path d="M817 8180 c-398 -71 -715 -385 -799 -789 -29 -139 -21 -358 16 -485 121 -406 438 -679 844 -726 372 -44 739 145 942 483 39 65 40 70 23 82 -153 111 -299 214 -303 215 -3 0 -20 -30 -39 -66 -64 -123 -190 -236 -318 -284 -274 -103 -603 33 -731 301 -51 108 -66 173 -65 284 3 227 132 432 335 535 99 49 168 63 287 58 152 -7 269 -60 379 -170 48 -49 122 -153 135 -191 3 -10 327 210 327 223 0 15 -75 129 -127 193 -112 139 -320 271 -498 318 -89 24 -323 35 -408 19z"/>
 <path d="M2250 7170 l0 -980 190 0 190 0 0 350 0 350 490 0 490 0 0 -350 0 -350 195 0 195 0 0 980 0 980 -195 0 -195 0 0 -425 0 -425 -490 0 -490 0 0 425 0 425 -190 0 -190 0 0 -980z"/>
 <path d="M4332 8058 c23 -51 218 -491 434 -978 l392 -885 269 -3 270 -2 12 27 c19 41 852 1906 858 1921 4 9 -45 12 -228 12 l-234 0 -85 -190 -85 -190 -504 2 -505 3 -84 188 -85 187 -233 0 -233 0 41 -92z m1436 -697 c-21 -56 -333 -741 -337 -741 -6 0 -321 729 -321 743 0 4 149 7 331 7 188 0 329 -4 327 -9z"/>
 <path d="M6870 7170 l0 -980 268 0 267 0 410 576 410 576 3 -576 2 -576 195 0 195 0 0 980 0 980 -157 0 -158 0 -520 -723 -520 -723 -3 723 -2 723 -195 0 -195 0 0 -980z"/>
 <path d="M9300 7170 l0 -980 690 0 690 0 0 205 0 205 -495 0 -495 0 0 190 0 190 455 0 455 0 0 200 0 200 -455 0 -455 0 0 190 0 190 565 0 565 0 0 195 0 195 -760 0 -760 0 0 -980z"/>
 <path d="M11340 7170 l0 -980 195 0 195 0 0 785 0 785 530 0 530 0 0 195 0 195 -725 0 -725 0 0 -980z"/>
 <path d="M4955 5820 c-894 -74 -1676 -523 -2186 -1255 -83 -120 -132 -206 -123 -214 11 -10 810 -421 818 -421 3 0 24 28 47 63 117 174 313 382 470 499 461 344 1022 470 1589 357 58 -12 133 -30 168 -41 l63 -19 -18 -23 c-182 -231 -302 -417 -394 -611 -142 -300 -226 -596 -265 -931 -20 -171 -14 -572 11 -729 82 -522 266 -953 583 -1368 41 -54 73 -100 70 -102 -12 -12 -256 -67 -356 -80 -142 -19 -396 -19 -527 0 -343 49 -664 184 -940 394 -167 128 -373 354 -476 524 -19 31 -38 57 -42 57 -5 0 -99 -47 -210 -104 -111 -58 -287 -149 -392 -203 -104 -54 -199 -103 -209 -109 -18 -11 -17 -15 19 -75 304 -505 728 -893 1250 -1145 306 -147 628 -239 965 -274 124 -13 480 -13 595 0 357 40 666 130 964 279 67 33 129 66 139 72 15 10 46 -2 183 -69 287 -142 538 -220 862 -270 145 -22 644 -24 782 -3 535 80 960 255 1383 570 169 126 435 392 562 563 107 142 223 324 218 340 -3 9 -804 428 -819 428 -4 0 -36 -44 -72 -97 -324 -486 -821 -798 -1397 -879 -142 -20 -459 -14 -590 10 -93 17 -221 49 -264 66 l-28 10 51 63 c153 186 339 506 434 747 273 690 270 1480 -10 2160 -95 232 -253 501 -409 697 l-74 92 63 20 c83 25 252 58 362 71 700 78 1418 -248 1825 -830 33 -47 66 -94 73 -104 13 -19 32 -10 421 190 225 115 410 214 413 221 2 6 -19 49 -48 95 -234 370 -573 708 -941 937 -850 531 -1934 581 -2825 131 l-132 -67 -98 50 c-249 129 -514 221 -780 272 -219 42 -550 62 -758 45z m1766 -1695 c180 -234 322 -542 378 -820 105 -522 5 -1040 -287 -1476 -71 -105 -206 -269 -222 -269 -15 0 -162 182 -233 290 -178 269 -281 575 -309 918 -41 497 140 1042 476 1435 l67 77 42 -48 c23 -26 63 -74 88 -107z"/>
 </g>

</svg>