<!DOCTYPE svg PUBLIC "-//W3C//DTD SVG 20010904//EN" "http://www.w3.org/TR/2001/REC-SVG-20010904/DTD/svg10.dtd">
<svg version="1.0" xmlns="http://www.w3.org/2000/svg" width="1200px" height="520px" viewBox="0 0 12000 5200" preserveAspectRatio="xMidYMid meet">
<g id="layer101" fill="#211e1e" stroke="none">
 <path d="M8128 4829 c-457 -56 -766 -324 -868 -752 -75 -312 -36 -620 109 -872 118 -206 334 -391 555 -476 308 -119 755 -100 1041 44 357 179 559 561 543 1030 -9 269 -91 473 -262 654 -229 243 -525 367 -901 378 -77 2 -174 0 -217 -6z m420 -164 c223 -70 362 -239 433 -525 27 -111 37 -382 19 -542 -56 -511 -310 -817 -680 -818 -155 0 -270 48 -381 159 -159 160 -233 385 -232 706 0 293 70 548 207 753 52 79 162 187 229 227 120 70 265 84 405 40z"/>
 <path d="M410 4793 c-33 -7 -50 -21 -50 -44 0 -37 37 -47 205 -54 356 -14 496 -30 566 -66 46 -23 94 -78 111 -126 17 -50 25 -3772 8 -3834 -6 -22 -25 -55 -42 -75 -66 -75 -155 -99 -439 -119 -117 -9 -223 -21 -238 -28 -35 -16 -35 -57 -1 -74 20 -11 271 -13 1315 -10 1383 4 1375 4 1675 57 804 143 1372 551 1656 1191 138 312 204 639 204 1016 0 283 -31 488 -111 738 -154 481 -464 889 -864 1135 -227 140 -521 239 -835 282 -60 8 -528 12 -1610 13 -839 2 -1536 1 -1550 -2z m2555 -153 c447 -30 693 -102 904 -264 75 -58 222 -213 299 -315 225 -299 361 -680 423 -1186 18 -147 16 -467 -4 -598 -71 -464 -248 -886 -496 -1181 -203 -241 -517 -421 -885 -506 -220 -50 -455 -70 -836 -69 -275 0 -315 6 -337 49 -17 33 -19 3993 -2 4037 5 15 16 31 22 35 18 11 737 9 912 -2z"/>
 <path d="M5693 4783 c-7 -2 -13 -13 -13 -23 0 -31 22 -37 142 -42 151 -7 201 -28 238 -103 l25 -50 3 -695 c2 -490 0 -706 -8 -733 -13 -44 -58 -77 -105 -77 -16 0 -78 14 -137 31 -131 37 -153 36 -153 -6 l0 -30 185 -61 c204 -67 280 -99 450 -191 129 -69 174 -82 205 -59 20 14 20 29 25 933 5 854 6 920 23 950 31 57 136 93 273 93 82 0 116 13 112 43 l-3 22 -625 2 c-344 1 -631 -1 -637 -4z"/>
 <path d="M9847 4783 c-4 -3 -7 -17 -7 -29 0 -25 12 -28 167 -39 87 -6 155 -25 186 -53 11 -9 29 -37 41 -62 21 -45 21 -51 18 -749 -2 -388 -8 -715 -13 -728 -11 -29 -65 -63 -100 -63 -15 0 -70 14 -124 30 -108 33 -160 38 -169 15 -14 -38 0 -47 189 -112 186 -64 327 -123 470 -198 69 -36 136 -65 149 -65 15 0 33 11 45 26 20 25 21 39 21 267 l0 241 73 -110 c146 -221 231 -316 336 -378 128 -75 241 -83 358 -25 73 35 118 85 138 153 39 129 -3 253 -99 297 -53 24 -80 24 -133 -2 -30 -14 -58 -41 -93 -89 -51 -70 -90 -100 -133 -100 -33 0 -135 64 -211 132 -85 76 -159 177 -197 267 -44 106 -52 248 -44 751 6 390 7 407 28 449 38 78 78 95 247 107 119 8 140 16 140 49 l0 25 -638 0 c-351 0 -642 -3 -645 -7z"/>
 <path d="M6207 1966 c-213 -59 -284 -329 -129 -489 54 -56 105 -79 188 -85 101 -6 163 16 230 82 66 67 88 129 82 230 -6 83 -29 134 -85 188 -74 72 -189 102 -286 74z"/>
 </g>

</svg>