<!DOCTYPE svg PUBLIC "-//W3C//DTD SVG 20010904//EN" "http://www.w3.org/TR/2001/REC-SVG-20010904/DTD/svg10.dtd">
<svg version="1.0" xmlns="http://www.w3.org/2000/svg" width="1600px" height="237px" viewBox="0 0 16000 2370" preserveAspectRatio="xMidYMid meet">
<g id="layer101" fill="#000000" stroke="none">
 <path d="M0 1185 l0 -1185 8000 0 8000 0 0 1185 0 1185 -8000 0 -8000 0 0 -1185z"/>
 </g>
<g id="layer102" fill="#ffffff" stroke="none">
 <path d="M0 1185 l0 -1185 8000 0 8000 0 0 1185 0 1185 -8000 0 -8000 0 0 -1185z m10821 794 c49 -17 98 -56 105 -84 7 -30 6 -30 73 -4 30 11 102 32 160 46 97 24 132 26 421 34 173 4 1067 8 1986 8 1469 1 1677 -1 1722 -14 90 -27 142 -87 142 -165 0 -70 -37 -119 -120 -158 -32 -16 -198 -17 -2005 -23 -2134 -6 -1995 -2 -2160 -56 -136 -44 -283 -142 -338 -226 -46 -70 -60 -117 -55 -190 5 -84 38 -145 118 -220 97 -92 221 -151 405 -194 77 -17 164 -18 2005 -14 1460 3 1939 1 1982 -8 31 -7 75 -25 97 -41 123 -90 84 -250 -73 -295 -47 -14 -279 -15 -2032 -12 l-1979 3 -90 21 c-203 50 -317 97 -456 189 -169 112 -293 272 -335 435 -34 130 -17 304 41 419 14 27 21 50 17 50 -5 0 -126 -57 -268 -126 -142 -70 -335 -163 -429 -209 -367 -178 -842 -409 -1080 -525 -585 -285 -621 -300 -732 -300 -86 0 -158 22 -306 94 -73 35 -265 128 -427 206 -162 78 -362 175 -445 215 -82 40 -292 141 -465 225 -173 84 -360 174 -415 200 -55 26 -207 100 -337 163 l-238 116 0 -524 c0 -288 -4 -534 -9 -547 -14 -38 -71 -87 -126 -107 -120 -45 -223 -36 -388 33 -56 24 -203 86 -327 139 -124 52 -342 144 -485 204 -1142 482 -1531 647 -1538 653 -10 9 262 125 325 140 55 12 181 12 236 0 40 -10 133 -48 727 -300 260 -110 531 -225 940 -398 l280 -119 5 593 5 593 30 31 c37 38 91 53 175 48 71 -5 57 1 385 -158 116 -56 269 -130 340 -165 72 -34 333 -160 580 -280 248 -120 513 -248 590 -285 77 -37 221 -107 320 -155 99 -48 221 -106 270 -130 50 -23 137 -66 194 -94 l104 -51 176 86 c97 47 271 131 386 187 116 56 289 141 385 189 l175 87 -1095 0 -1095 1 -308 147 c-408 196 -409 186 18 194 176 4 970 7 1764 8 l1445 1 260 127 c494 240 601 291 621 296 37 9 112 7 146 -4z m-10082 -30 c73 -41 71 -18 71 -664 0 -480 2 -576 13 -572 8 3 335 142 728 310 393 168 743 317 779 332 l65 26 205 -86 c113 -48 213 -89 223 -92 9 -3 17 -8 17 -12 0 -4 -118 -57 -262 -118 -145 -62 -497 -212 -783 -333 -286 -122 -617 -263 -735 -314 l-215 -91 -110 0 c-94 0 -117 3 -160 23 -61 28 -93 57 -111 99 -21 49 -20 1401 0 1442 40 77 182 103 275 50z m9396 -884 c126 -36 183 -121 132 -198 -46 -71 -209 -116 -347 -97 -129 18 -230 86 -230 155 0 39 42 89 100 118 94 46 227 55 345 22z m-4063 -14 c76 -29 118 -77 118 -133 0 -35 -6 -47 -40 -79 -146 -139 -550 -78 -550 83 0 58 85 127 182 148 73 15 226 5 290 -19z"/>
 </g>

</svg>