<svg viewBox="0 0 490 74" id="logo" width="100%" height="100%">
    <path d="M10.8 17.2h.2l12.5 29.4L36 17.2h.1L41 45.7h5.4L37.8.7l-14.3 34L9.1.7l-8.5 45H6zM60.5 34.9h19.2l4.8 10.8h5.6l-20-45-19.9 45h5.6l4.7-10.8zm9.6-22.4L77.5 30H62.7l7.4-17.5zM98.8 27.7l2.1-2.1 15.7 20.1h7L104.5 22l18.8-19.4h-6.8L98.8 21.3V2.6h-5.3v43.1h5.3zM149.2 40.8H132V24.5h16.7v-4.9H132V7.5h17.2V2.6h-22.4v43.1h22.4zM186.2 46.6c9.6 0 15.3-7.3 15.3-16.7V2.6h-5.2V28c0 7-2.1 13.5-10.1 13.5S176.1 35 176.1 28V2.6h-5.2v27.3c0 9.4 5.8 16.7 15.3 16.7zM213.9 27.6h3c7.9 0 14.6-3.5 14.6-12.6 0-7.9-4-12.5-16.8-12.5h-6v43.1h5.2v-18zm0-20.2h1.4c5.2 0 11.4.8 11.4 7.5 0 6.9-5.8 7.9-11.1 7.9h-1.7V7.4zM257.3 24.5h14.6v-4.9h-14.6V7.5h15V2.6h-20.2v43.1h5.2zM297.4 46.6c12.1 0 21.9-9.7 21.9-22.5 0-12.3-9.9-22.5-21.9-22.5-12 0-21.9 10.1-21.9 22.5 0 12.8 9.8 22.5 21.9 22.5zm0-39.9c9.8 0 16.7 7.9 16.7 17.4 0 9.8-7.6 17.4-16.7 17.4-9 0-16.7-7.6-16.7-17.4 0-9.5 6.9-17.4 16.7-17.4zM337.1 26.9c6-.7 10-5.9 10-12.1 0-4.1-2-8.2-5.5-10.3-3.3-1.9-7.3-2-11-2h-6.3v43.1h5.2V27.4h2.2L344 45.7h6.3l-13.2-18.8zm-5.9-3.9h-1.7V7.4h1.4c5.2 0 11.4 1 11.4 7.7 0 6.9-5.8 7.9-11.1 7.9zM392.9 40.8h-17.3V24.5h16.8v-4.9h-16.8V7.5h17.3V2.6h-22.5v43.1h22.5zM413.1 34.5L400.6 2.6h-5.7L413.1 48l18.1-45.4h-5.7zM457.2 40.8H440V24.5h16.7v-4.9H440V7.5h17.2V2.6h-22.4v43.1h22.4zM489.6 45.7l-13.2-18.8c6-.7 10-5.9 10-12.1 0-4.1-2-8.2-5.5-10.3-3.3-1.9-7.3-2-11-2h-6.3v43.1h5.2V27.4h2.2l12.3 18.2h6.3zM470.5 23h-1.7V7.4h1.4c5.2 0 11.4 1 11.4 7.7 0 6.9-5.8 7.9-11.1 7.9zM254.2 57.9h-2.1v14.7h1.8v-6.2h1.1c2.8 0 5.2-1.2 5.2-4.3 0-2.6-1.4-4.2-6-4.2zm.3 6.9h-.5v-5.3h.5c1.8 0 4 .3 4 2.6-.1 2.4-2.1 2.7-4 2.7zM.4 64.4h241.5v1.7H.4zM415.9 64.8v1.3h10.8v-1.7h-10.8zM272 62.1c0-1.4-.7-2.8-1.9-3.5-1.2-.7-2.6-.7-3.9-.7H264v14.7h1.8v-6.2h.8l4.3 6.2h2.2l-4.6-6.4c2.1-.2 3.5-2 3.5-4.1zm-5.6 2.8h-.6v-5.3h.5c1.8 0 4 .3 4 2.6 0 2.3-2.1 2.7-3.9 2.7zM283.4 57.6c-4.2 0-7.7 3.5-7.7 7.7 0 4.4 3.5 7.7 7.7 7.7 4.3 0 7.7-3.3 7.7-7.7 0-4.2-3.5-7.7-7.7-7.7zm0 13.6c-3.2 0-5.9-2.6-5.9-6 0-3.2 2.4-6 5.9-6 3.5 0 5.9 2.7 5.9 6 0 3.4-2.7 6-5.9 6zM295 72.6h1.8v-7.2h5.2v-1.7h-5.2v-4.1h5.3v-1.7H295zM306.4 72.6h8V71h-6.1v-5.6h5.9v-1.7h-5.9v-4.1h6.1v-1.7h-8zM323.6 63.9l-1.1-.4c-.9-.4-2-1-2-2.1 0-1.3 1.3-2.1 2.5-2.1 1.1 0 1.8.5 2.4 1.4l1.5-.9c-.8-1.4-2.1-2.2-3.8-2.2-2.2 0-4.3 1.4-4.3 3.8 0 2.1 1.5 3 3.2 3.7l1 .4c1.3.5 2.5 1.2 2.5 2.8 0 1.5-1.1 2.9-2.7 2.9s-2.9-1.2-2.8-2.8l-1.9.4c.3 2.4 2.2 4.1 4.5 4.1 2.6 0 4.7-1.9 4.7-4.6-.1-2.4-1.6-3.5-3.7-4.4zM336.2 63.9l-1.1-.4c-.9-.4-2.1-1-2.1-2.1 0-1.3 1.3-2.1 2.5-2.1 1.1 0 1.8.5 2.4 1.4l1.5-.9c-.8-1.4-2.1-2.2-3.8-2.2-2.2 0-4.3 1.4-4.3 3.8 0 2.1 1.5 3 3.2 3.7l1 .4c1.3.5 2.5 1.2 2.5 2.8 0 1.5-1.1 2.9-2.7 2.9s-2.9-1.2-2.9-2.8l-1.9.4c.3 2.4 2.2 4.1 4.5 4.1 2.6 0 4.7-1.9 4.7-4.6.2-2.4-1.4-3.5-3.5-4.4zM344 57.9h1.8v14.7H344zM357.4 57.6c-4.2 0-7.7 3.5-7.7 7.7 0 4.4 3.5 7.7 7.7 7.7 4.3 0 7.7-3.3 7.7-7.7 0-4.2-3.4-7.7-7.7-7.7zm0 13.6c-3.2 0-5.9-2.6-5.9-6 0-3.2 2.4-6 5.9-6 3.5 0 5.9 2.7 5.9 6 0 3.4-2.7 6-5.9 6zM380 68.8l-11.1-11.6v15.4h1.8V61.7l11.1 11.6V57.9H380zM385 72.6h2l1.7-3.7h6.8l1.7 3.7h2l-7-15.3-7.2 15.3zm4.4-5.3l2.6-6 2.6 6h-5.2zM404.3 57.9h-1.9v14.7h6.4V71h-4.5zM437.6 57.9h-2.1v14.7h1.8v-6.2h1.1c2.8 0 5.2-1.2 5.2-4.3 0-2.6-1.4-4.2-6-4.2zm.4 6.9h-.6v-5.3h.5c1.8 0 4 .3 4 2.6 0 2.4-2.1 2.7-3.9 2.7zM444.2 72.6h2l1.7-3.7h6.8l1.7 3.7h2l-7-15.3-7.2 15.3zm4.5-5.3l2.6-6 2.6 6h-5.2zM469.7 62.1c0-1.4-.7-2.8-1.9-3.5-1.2-.7-2.6-.7-3.9-.7h-2.2v14.7h1.8v-6.2h.8l4.3 6.2h2.2l-4.6-6.4c2.1-.2 3.5-2 3.5-4.1zm-5.6 2.8h-.6v-5.3h.5c1.8 0 4 .3 4 2.6 0 2.3-2 2.7-3.9 2.7zM474.4 57.9h1.8v14.7h-1.8zM486 63.9l-1.1-.4c-.9-.4-2.1-1-2.1-2.1 0-1.3 1.3-2.1 2.5-2.1 1.1 0 1.8.5 2.4 1.4l1.5-.9c-.8-1.4-2.1-2.2-3.8-2.2-2.2 0-4.3 1.4-4.3 3.8 0 2.1 1.5 3 3.2 3.7l1 .4c1.3.5 2.5 1.2 2.5 2.8 0 1.5-1.1 2.9-2.7 2.9s-2.9-1.2-2.9-2.8l-1.9.4c.3 2.4 2.2 4.1 4.5 4.1 2.6 0 4.7-1.9 4.7-4.6.1-2.4-1.4-3.5-3.5-4.4z"></path>
</svg>