<svg viewBox="0 0 646 200" id="logo-lips" width="100%" height="100%">
    <path fill="#DD052B" d="M479.9 104.3C466.1 85.5 428.1 27.2 378.8 2.9c-21.8-10.8-33 11.5-52 12.2-19-.6-30.2-22.9-52-12.2-49.3 24.3-87.3 82.6-101.2 101.3-8.1 11 2.2 38.6 40.4 69.2 15.6 12.5 32.5 20.5 53.9 25.2 16.1 3.5 42-.9 58.8-.5 16.8-.4 42.7 4 58.8.5 21.4-4.7 38.3-12.7 53.9-25.2 38.3-30.5 48.7-58.1 40.5-69.1zm-73.6 25c-19 6.8-49.7 2-79.5 1.1-29.8.9-60.5 5.7-79.5-1.1-47.8-17-22.7-29.1-22.7-29.1 20.5-17.7 46.2-32.8 56-39.3 14.9-9.8 24.9 3 46.1 3.3h.1c21.2-.3 31.2-13.1 46.1-3.3 9.8 6.5 35.5 21.6 56 39.3 0 .1 25.2 12.1-22.6 29.1z"></path>
    <path fill="#FFF" d="M428.9 100.3c-20.5-17.7-46.2-32.8-56-39.3-14.9-9.8-24.9 3-46.1 3.3h-.1c-21.2-.3-31.2-13.1-46.1-3.3-9.8 6.5-35.5 21.6-56 39.3 0 0-25.1 12.1 22.7 29.1 19 6.8 49.7 2 79.5 1.1 29.8.9 60.4 5.7 79.5-1.1 47.8-17.1 22.6-29.1 22.6-29.1zM284.3 18.9c4.4-.3 9.8 7.9 7.6 9.3-2.2 1.4-17.3 5.4-23.7 9.8-6.4 4.5-18 9.5-13.1.8 4.7-8.5 15.4-18.8 29.2-19.9zM333.7 150.4c7.4.5 17 4.7 7.1 9.1-10 4.5-17 5.2-31.8 4-14.8-1.2-27.4-2.4-39.6-3.3-12.2-.9-24.3-11.2-12.9-10 37.6 4.2 63.1-.8 77.2.2zM629.4 97c-5.8.3-19.8 2.9-19.8 2.9v16.4s14 2.6 19.8 2.9c4.8.3 13.6-5.8 15.6-11v-.2c-2.5-5.3-10.8-11.2-15.6-11z"></path>
    <path d="M21.5 104.3s201.3-3.1 215.8-2.8c22.9.5 101.1 4.3 173.6 0 7.5-.4 52.4-1.4 83.2-1.4 45.1 0 103.3 1.7 103.3 1.7v13.4c-17.7 1-69.3 1.1-102.9.9-34.8-.2-64.6.2-83.8-.6-87.9-3.8-136 .7-173.2.7 0 0-211.4-2.5-227.9-4.5l11.9-7.4z"></path>
    <path fill="#FFF" stroke="#FFF" stroke-width="3" stroke-miterlimit="10" d="M493.3 100.1h.8c45.1 0 103.3 1.7 103.3 1.7v13.4c-12.6.7-42.4 1-70.7 1-11.4 0-22.6 0-32.2-.1-34.8-.2-64.6.2-83.8-.6-26.1-1.1-48.8-1.5-68.6-1.5-47 0-78.5 2.2-104.6 2.2 0 0-211.4-2.5-227.9-4.5l12-7.4s181.7-2.8 212.3-2.8h3.5c14.8.3 52.7 2 97.2 2 24.4 0 50.7-.5 76.4-2 7.4-.5 51.5-1.4 82.3-1.4m0-1.8c-31 0-74.8 1-82.4 1.4-22.7 1.3-48.4 2-76.3 2-33.7 0-63.1-1-82.5-1.6-6.1-.2-11-.4-14.6-.4h-3.6c-30.3 0-210.5 2.8-212.4 2.8H21l-.4.2-12 7.4-4.2 2.6 4.9.6c16.4 2 219.4 4.4 228 4.5 11.2 0 23.3-.4 37.3-.9 19-.6 40.5-1.3 67.3-1.3 22.4 0 44.8.5 68.5 1.5 12.8.6 30.5.6 50.9.6 10.5 0 21.4 0 33 .1 10.3.1 21.5.1 32.2.1 20.2 0 56.2-.1 70.8-1l1.6-.1v-16.7h-1.7c-.6 0-58.8-1.6-103.3-1.7l-.6-.1z"></path>
    <path d="M21.5 104.3s201.3-3.1 215.8-2.8c22.9.5 101.1 4.3 173.6 0 7.5-.4 52.4-1.4 83.2-1.4 45.1 0 103.3 1.7 103.3 1.7v13.4c-17.7 1-69.3 1.1-102.9.9-34.8-.2-64.6.2-83.8-.6-87.9-3.8-136 .7-173.2.7 0 0-211.4-2.5-227.9-4.5l11.9-7.4z"></path>
</svg>