<?xml version="1.0" standalone="no"?>
<!DOCTYPE svg PUBLIC "-//W3C//DTD SVG 20010904//EN"
 "http://www.w3.org/TR/2001/REC-SVG-20010904/DTD/svg10.dtd">
<svg version="1.0" xmlns="http://www.w3.org/2000/svg"
 width="5400.000000pt" height="2400.000000pt" viewBox="0 0 5400.000000 2400.000000"
 preserveAspectRatio="xMidYMid meet">

<g transform="translate(0.000000,2400.000000) scale(0.100000,-0.100000)"
fill="#000000" stroke="none">
<path d="M12380 16796 l0 -4066 695 0 695 0 2 1790 3 1790 60 -82 c366 -506
906 -1069 1435 -1494 1308 -1052 2906 -1717 4645 -1933 442 -55 743 -71 1378
-71 l527 0 0 4065 0 4065 -692 -2 -693 -3 -3 -3372 -2 -3373 -23 0 c-12 0
-103 9 -202 20 -1504 170 -2908 737 -4017 1622 -1421 1134 -2266 2669 -2397
4358 -6 69 -13 261 -17 427 -7 294 -8 302 -28 308 -12 4 -324 9 -693 12 l-673
5 0 -4066z"/>
<path d="M32723 20543 c6 -333 18 -478 63 -723 168 -915 665 -1771 1409 -2427
208 -184 475 -379 700 -513 50 -29 96 -58 102 -63 9 -7 -27 -33 -130 -94 -407
-244 -714 -488 -989 -787 -622 -676 -999 -1460 -1117 -2321 -30 -219 -41 -390
-41 -657 l0 -238 694 0 693 0 6 293 c7 364 33 551 114 832 312 1078 1243 1918
2413 2179 446 99 953 104 1416 15 1113 -214 2061 -999 2427 -2010 130 -358
177 -640 177 -1061 l0 -248 696 0 696 0 -5 333 c-6 363 -20 508 -78 792 -220
1078 -904 2064 -1889 2724 -96 64 -214 139 -262 167 -49 27 -88 51 -88 54 1 3
44 30 97 60 504 289 1011 735 1372 1209 382 502 648 1082 770 1676 58 284 72
429 78 793 l5 332 -696 0 -696 0 0 -248 c0 -270 -14 -425 -56 -637 -181 -907
-804 -1699 -1684 -2138 -945 -473 -2063 -482 -3017 -27 -936 447 -1592 1295
-1752 2265 -30 181 -41 328 -41 568 l0 217 -696 0 -697 0 6 -317z"/>
<path d="M22423 20523 c7 -453 39 -710 132 -1088 197 -800 613 -1545 1204
-2157 736 -762 1716 -1278 2756 -1451 l140 -23 3 -1542 2 -1542 695 0 695 0 2
1542 3 1541 135 23 c498 84 916 219 1375 444 384 188 712 401 1030 669 131
110 401 377 528 521 584 665 972 1480 1112 2340 41 255 55 447 55 762 l0 288
-690 0 -690 0 0 -167 c0 -203 -15 -447 -36 -603 -85 -626 -355 -1236 -771
-1737 -102 -123 -326 -346 -458 -456 -541 -448 -1207 -727 -1919 -802 -187
-19 -556 -20 -741 0 -1055 112 -2001 676 -2584 1540 -308 457 -488 932 -567
1495 -10 74 -18 223 -21 423 l-5 307 -696 0 -695 0 6 -327z"/>
<path d="M26675 9689 c-323 -40 -517 -393 -377 -688 17 -37 189 -263 462 -609
408 -516 436 -549 452 -534 9 10 213 256 453 547 293 357 446 550 466 592 86
172 52 397 -82 538 -102 108 -212 156 -359 156 -147 0 -257 -48 -359 -156 -48
-51 -111 -161 -111 -195 0 -8 -11 11 -24 43 -88 214 -292 333 -521 306z"/>
<path d="M7507 4999 c-332 -48 -569 -215 -696 -491 -64 -138 -76 -205 -76
-423 0 -227 10 -275 92 -444 48 -100 65 -124 141 -201 99 -99 191 -158 315
-201 l82 -29 325 0 325 0 82 29 c256 89 435 281 520 558 25 83 27 99 27 288 0
176 -3 210 -22 280 -99 357 -362 578 -757 635 -83 11 -276 11 -358 -1z m388
-114 c236 -64 398 -235 465 -494 32 -120 44 -283 31 -415 -35 -362 -186 -580
-466 -673 -73 -25 -94 -27 -235 -27 -141 0 -162 2 -235 27 -113 37 -197 91
-272 171 -150 162 -222 432 -195 729 36 389 215 619 538 691 86 19 281 14 369
-9z"/>
<path d="M15730 4994 c-262 -56 -418 -263 -395 -522 17 -204 130 -325 407
-439 179 -73 244 -109 310 -173 44 -43 60 -67 72 -109 43 -148 -13 -321 -131
-402 -191 -132 -461 -66 -590 142 -52 85 -63 80 -78 -31 -3 -25 -13 -67 -22
-94 -16 -49 -16 -50 8 -69 13 -11 54 -35 91 -53 l68 -34 252 0 252 0 73 37
c164 80 266 228 293 422 36 264 -82 417 -419 546 -190 72 -307 152 -354 239
-31 58 -32 210 -1 277 47 102 153 169 278 177 132 8 242 -59 300 -181 33 -70
60 -77 71 -19 3 20 18 70 32 110 24 71 24 74 6 88 -41 33 -140 76 -202 90 -83
17 -236 17 -321 -2z"/>
<path d="M18296 4994 c-143 -32 -268 -116 -333 -225 -84 -140 -84 -362 -1
-491 66 -104 166 -171 384 -261 209 -85 293 -145 335 -239 31 -72 31 -188 0
-270 -79 -204 -329 -286 -542 -177 -60 30 -137 105 -172 167 -33 60 -60 67
-65 17 -2 -17 -12 -68 -23 -114 -25 -99 -25 -99 84 -156 l68 -35 254 0 253 0
79 40 c194 97 299 285 291 520 -3 90 -7 113 -31 161 -53 109 -177 201 -364
273 -166 63 -243 106 -315 176 -76 74 -91 112 -90 223 1 212 209 354 422 291
67 -20 157 -105 186 -177 29 -71 51 -62 75 30 10 39 25 86 34 103 13 25 14 34
4 46 -19 23 -90 62 -155 85 -80 28 -280 35 -378 13z"/>
<path d="M23167 4995 c-311 -52 -538 -213 -662 -468 -70 -146 -89 -239 -88
-442 0 -149 3 -182 25 -266 77 -289 263 -490 540 -585 70 -23 79 -24 393 -24
362 0 372 2 526 81 154 80 264 196 345 364 73 151 101 304 91 495 -25 465
-307 776 -767 845 -115 18 -297 18 -403 0z m408 -109 c275 -73 453 -296 496
-621 16 -126 7 -358 -19 -455 -63 -236 -175 -388 -347 -470 -92 -44 -169 -61
-300 -67 -187 -8 -332 33 -462 131 -178 135 -273 373 -273 686 0 204 40 376
120 511 68 115 195 219 324 266 124 44 332 53 461 19z"/>
<path d="M26004 4437 c-1 -529 -15 -955 -41 -1174 l-6 -53 94 0 94 0 -6 147
c-12 280 -19 958 -12 1089 l8 132 295 -315 c422 -450 579 -621 783 -850 167
-189 182 -203 214 -203 l34 0 -2 548 c-2 497 4 729 30 1110 3 57 5 105 3 106
-1 2 -20 0 -42 -4 -22 -4 -59 -4 -82 0 -24 5 -44 8 -45 7 0 -1 3 -92 7 -202 5
-110 9 -414 9 -675 l0 -475 -62 66 c-34 37 -165 176 -292 311 -126 134 -389
415 -583 626 -256 277 -360 382 -375 382 l-22 0 -1 -573z"/>
<path d="M29726 4828 c-183 -422 -679 -1528 -717 -1600 -9 -17 -2 -18 89 -18
l98 0 53 156 c29 85 85 237 125 337 l72 182 323 0 323 0 109 -270 c60 -148
119 -300 131 -337 l22 -68 139 0 c108 0 138 3 134 13 -3 6 -37 80 -75 162 -94
205 -269 612 -498 1160 -239 573 -212 550 -328 283z m198 -521 c69 -159 126
-290 126 -293 0 -2 -124 -4 -276 -4 -217 0 -275 3 -271 13 3 6 65 151 138 320
126 296 133 308 144 280 7 -15 69 -158 139 -316z"/>
<path d="M36890 5005 c0 -12 -42 -376 -61 -520 -36 -289 -163 -1146 -185
-1247 l-6 -28 95 0 94 0 6 143 c7 166 24 352 73 787 45 415 38 387 81 309 19
-35 167 -327 330 -649 163 -322 301 -586 307 -588 6 -1 29 37 51 85 80 182
246 511 435 861 171 317 196 358 202 334 11 -43 57 -494 91 -902 l32 -375 123
-3 c67 -1 122 1 122 6 0 5 -9 74 -19 153 -28 204 -104 855 -146 1249 -42 394
-41 390 -65 390 -18 0 -88 -125 -461 -820 -84 -157 -189 -354 -234 -438 l-82
-152 -169 312 c-92 172 -258 490 -367 706 -179 355 -201 392 -223 392 -13 0
-24 -2 -24 -5z"/>
<path d="M40911 4967 c-114 -265 -477 -1083 -645 -1450 -75 -164 -136 -301
-136 -303 0 -3 43 -3 96 -2 l96 3 62 180 c35 99 91 251 125 338 l63 157 321 0
322 0 100 -248 c55 -136 114 -287 131 -337 l31 -90 141 -3 141 -3 -59 123
c-66 140 -418 960 -596 1391 -116 280 -119 287 -147 287 -23 0 -31 -7 -46 -43z
m112 -602 c58 -132 116 -266 130 -297 l26 -58 -279 0 -278 0 137 319 c121 285
137 317 148 297 6 -12 59 -130 116 -261z"/>
<path d="M1297 4746 c10 -297 10 -1015 0 -1308 l-8 -228 126 0 126 0 -8 233
c-4 127 -8 305 -8 394 l0 163 185 3 c216 4 293 19 420 79 64 31 102 58 152
108 108 108 144 208 136 379 -6 116 -31 189 -89 255 -111 126 -278 165 -629
148 -107 -6 -208 -8 -225 -6 -16 2 -65 5 -108 7 l-78 4 8 -231z m676 104 c84
-26 145 -78 178 -153 20 -44 23 -69 24 -167 0 -134 -15 -188 -73 -265 -82
-109 -206 -159 -392 -160 -63 0 -132 4 -152 8 l-38 8 0 373 c0 205 3 376 8
381 4 4 90 5 192 2 151 -4 198 -9 253 -27z"/>
<path d="M4007 4758 c10 -286 10 -1049 0 -1330 l-8 -218 127 0 127 0 -6 153
c-4 83 -10 272 -13 420 l-7 267 50 0 c49 0 52 -2 109 -62 102 -110 399 -491
567 -725 l37 -53 155 0 155 0 -85 98 c-47 53 -204 247 -350 431 l-264 335 67
17 c202 52 343 153 415 298 30 62 32 71 32 181 0 110 -1 118 -33 182 -51 103
-131 163 -268 199 -86 22 -168 25 -530 20 -111 -2 -220 0 -243 4 l-42 7 8
-224z m577 112 c136 -20 231 -83 278 -185 19 -41 23 -67 23 -145 0 -82 -4
-103 -27 -152 -51 -110 -158 -187 -303 -219 -64 -14 -293 -17 -315 -4 -10 6
-11 65 -5 289 4 154 10 310 14 346 l6 65 65 6 c109 9 192 9 264 -1z"/>
<path d="M10278 4813 c9 -217 9 -1252 0 -1450 l-8 -153 131 0 131 0 -6 33 c-3
17 -8 214 -12 436 l-7 404 314 -5 c173 -3 321 -8 329 -12 13 -5 15 7 15 75 l0
81 -60 -6 c-33 -3 -180 -9 -326 -13 l-266 -6 -7 160 c-4 89 -4 236 0 327 l7
166 101 0 c109 0 441 -16 546 -26 l65 -6 -3 82 -4 82 -60 -7 c-80 -10 -746
-10 -825 0 l-63 7 8 -169z"/>
<path d="M12847 4759 c10 -289 10 -1052 0 -1331 l-8 -218 463 0 463 0 1 76 c1
73 0 75 -21 70 -55 -14 -267 -26 -456 -26 l-206 0 -7 92 c-8 117 -8 571 1 622
l6 39 226 -7 c124 -4 262 -9 306 -13 l80 -6 0 82 1 81 -31 -5 c-38 -6 -426
-25 -516 -25 l-67 0 -7 121 c-4 66 -4 214 0 330 l7 209 112 0 c61 0 201 -7
311 -15 110 -8 211 -15 225 -15 25 0 25 1 25 81 l0 80 -60 -7 c-80 -9 -713 -9
-793 1 l-63 7 8 -223z"/>
<path d="M20547 4763 c10 -279 10 -1065 0 -1340 l-8 -213 126 0 126 0 -8 253
c-10 324 -10 930 0 1260 l9 259 -24 -8 c-29 -9 -178 -8 -207 1 l-22 7 8 -219z"/>
<path d="M32197 4713 c10 -341 10 -914 0 -1245 l-8 -258 473 0 473 0 0 76 0
75 -45 -6 c-133 -17 -266 -25 -451 -25 l-207 0 -7 358 c-8 346 -2 933 12 1176
l6 118 -23 -7 c-30 -9 -179 -10 -208 -1 l-24 8 9 -269z"/>
<path d="M43317 4803 c10 -228 10 -1195 1 -1420 l-8 -173 131 0 131 0 -6 23
c-12 40 -20 867 -9 867 18 0 123 -119 449 -510 l317 -380 153 0 154 0 -122
138 c-183 203 -690 781 -711 808 l-19 24 219 221 c184 186 304 302 573 548 30
28 32 31 11 26 -22 -7 -169 -8 -201 -3 -9 2 -72 -60 -150 -147 -74 -82 -195
-215 -270 -294 -142 -151 -385 -381 -403 -381 -7 0 -8 120 -3 388 4 213 8 398
9 412 2 20 -2 24 -18 22 -43 -6 -193 -4 -213 3 l-22 6 7 -178z"/>
<path d="M46167 4869 c10 -148 10 -1400 0 -1546 l-7 -113 467 0 468 0 0 76 0
75 -32 -6 c-80 -15 -255 -24 -450 -25 l-213 0 0 377 0 376 233 -7 c127 -3 267
-9 310 -13 l77 -6 0 82 0 82 -32 -5 c-40 -7 -426 -26 -520 -26 l-68 0 0 269
c0 147 3 296 6 330 l7 61 106 0 c96 -1 198 -6 469 -26 l92 -7 0 83 0 82 -62
-7 c-81 -10 -715 -10 -796 0 l-62 7 7 -113z"/>
<path d="M48746 4352 c1 -605 1 -630 22 -714 46 -187 139 -312 287 -384 l80
-39 313 -3 314 -3 86 42 c121 58 223 160 280 279 73 151 73 148 102 930 6 157
15 337 20 400 5 63 8 115 7 116 -1 2 -20 -1 -41 -6 -21 -5 -61 -5 -90 0 -28 4
-51 7 -52 6 0 0 4 -172 9 -381 19 -749 -14 -985 -163 -1148 -55 -61 -153 -117
-240 -138 -76 -18 -259 -16 -338 4 -195 51 -294 156 -353 372 -20 73 -23 110
-27 405 -4 294 10 773 25 859 5 31 4 33 -18 26 -28 -9 -178 -10 -205 -1 -18 6
-19 -13 -18 -622z"/>
<path d="M52017 4779 c10 -262 10 -1127 0 -1376 l-8 -193 128 0 128 0 -6 142
c-4 79 -8 256 -10 395 l-4 252 185 4 c217 5 297 19 418 77 112 54 200 137 250
239 l37 75 0 140 c0 132 -2 145 -27 198 -53 114 -150 187 -297 224 -69 17
-175 20 -526 15 -121 -2 -233 0 -248 4 l-28 7 8 -203z m568 92 c181 -22 260
-79 300 -216 23 -79 16 -227 -14 -307 -63 -165 -252 -260 -491 -245 -52 3
-105 9 -117 13 l-23 6 0 372 c0 205 3 376 7 379 9 10 253 8 338 -2z"/>
</g>
</svg>
