<?xml version="1.0" encoding="iso-8859-1"?>
<!-- Generator: Adobe Illustrator 19.0.0, SVG Export Plug-In . SVG Version: 6.00 Build 0)  -->
<svg version="1.1" id="Capa_1" xmlns="http://www.w3.org/2000/svg" xmlns:xlink="http://www.w3.org/1999/xlink" x="0px" y="0px"
	 viewBox="0 0 511.999 511.999" style="enable-background:new 0 0 511.999 511.999;" xml:space="preserve">
<path style="fill:#66BD21;" d="M490.008,107.089l-85.098-85.098c-29.321-29.336-77.048-29.307-106.369,0L21.99,298.541
	c-29.307,29.321-29.307,77.048,0,106.369l85.098,85.098c14.66,14.66,33.919,21.991,53.177,21.991
	c19.273,0,38.532-7.331,53.192-21.991l276.55-276.55C519.315,184.137,519.315,136.409,490.008,107.089z"/>
<path style="fill:#5DAD1D;" d="M490.008,107.089l-85.098-85.098c-29.321-29.336-77.048-29.307-106.369,0L160.265,160.266
	l191.468,191.468l138.276-138.276C519.315,184.137,519.315,136.409,490.008,107.089z"/>
<g>
	<path style="fill:#FEDB41;" d="M237.549,379.732c-2.894,5.787-9.064,9.079-15.586,8.168l-104.239-14.896l53.177,53.177
		c5.876,5.876,5.876,15.395,0,21.271c-2.938,2.938-6.787,4.407-10.635,4.407c-3.848,0-7.698-1.469-10.635-4.407l-85.084-85.084
		c-4.583-4.583-5.714-11.576-2.821-17.363c2.893-5.787,9.167-9.079,15.586-8.168l104.239,14.896l-53.192-53.192
		c-5.876-5.876-5.876-15.395,0-21.271c5.876-5.876,15.395-5.876,21.271,0l85.098,85.098
		C239.312,366.952,240.443,373.945,237.549,379.732z"/>
	<path style="fill:#FEDB41;" d="M319.812,298.541l-42.542,42.557c-2.938,2.938-6.787,4.407-10.635,4.407
		c-3.848,0-7.698-1.469-10.635-4.407L170.902,256c-5.876-5.876-5.876-15.395,0-21.271l42.557-42.542
		c5.876-5.876,15.395-5.876,21.271,0s5.876,15.395,0,21.271l-31.919,31.908l21.276,21.276l31.914-31.914
		c5.876-5.876,15.395-5.876,21.271,0c5.876,5.876,5.876,15.395,0,21.271l-31.914,31.914l21.276,21.276l31.908-31.919
		c5.876-5.876,15.395-5.876,21.271,0C325.688,283.146,325.688,292.666,319.812,298.541z"/>
</g>
<g>
	<path style="fill:#FFCC33;" d="M255.999,234.728l-10.635,10.635l21.271,21.271l10.635-10.635c5.876-5.876,5.876-15.395,0-21.271
		C271.394,228.853,261.876,228.853,255.999,234.728z"/>
	<path style="fill:#FFCC33;" d="M298.541,277.27l-10.634,10.637l21.271,21.271l10.634-10.637c5.876-5.876,5.876-15.395,0-21.271
		C313.936,271.395,304.417,271.395,298.541,277.27z"/>
	<path style="fill:#FFCC33;" d="M224.091,224.091l10.637-10.634c5.876-5.876,5.876-15.395,0-21.271
		c-5.876-5.876-15.395-5.876-21.271,0l-10.637,10.634L224.091,224.091z"/>
	<path style="fill:#FFCC33;" d="M427.283,190.953c-3.937,4.921-10.474,6.845-16.497,4.848l-35.27-11.752l11.752,35.285
		c1.998,5.979,0.059,12.559-4.848,16.496c-2.733,2.189-6.067,3.305-9.417,3.305c-2.674,0-5.347-0.705-7.742-2.145l-106.369-63.827
		c-7.124-4.275-9.431-13.515-5.157-20.639s13.529-9.431,20.639-5.157l71.496,42.909l-8.403-25.252
		c-1.807-5.406-0.397-11.37,3.628-15.395c4.025-4.025,9.989-5.464,15.395-3.628l25.237,8.403l-42.894-71.48
		c-4.275-7.124-1.969-16.364,5.157-20.639c7.124-4.26,16.35-1.969,20.639,5.157l63.813,106.355
		C431.69,179.201,431.22,186.032,427.283,190.953z"/>
</g>
<g>
</g>
<g>
</g>
<g>
</g>
<g>
</g>
<g>
</g>
<g>
</g>
<g>
</g>
<g>
</g>
<g>
</g>
<g>
</g>
<g>
</g>
<g>
</g>
<g>
</g>
<g>
</g>
<g>
</g>
</svg>
