<?xml version="1.0"?>
<svg xmlns="http://www.w3.org/2000/svg" xmlns:xlink="http://www.w3.org/1999/xlink" version="1.1" id="Capa_1" x="0px" y="0px" viewBox="0 0 512.001 512.001" style="enable-background:new 0 0 512.001 512.001;" xml:space="preserve" width="512px" height="512px" class=""><g><path style="fill:#5CAD22" d="M361.644,348.025c-4.682-2.605-10.411-2.469-14.966,0.354  c-27.185,16.862-58.541,25.774-90.677,25.774s-63.491-8.913-90.677-25.774c-4.554-2.825-10.282-2.962-14.966-0.354  s-7.587,7.546-7.587,12.905v136.3c0,5.012,2.541,9.682,6.75,12.403c4.208,2.721,9.509,3.122,14.08,1.065L256,469.119l92.401,41.579  c1.935,0.871,4,1.301,6.059,1.301c2.803,0,5.594-0.799,8.021-2.366c4.208-2.72,6.75-7.39,6.75-12.402v-136.3  C369.231,355.571,366.327,350.631,361.644,348.025z" data-original="#1692FF" class="active-path" data-old_color="#5BAD20"/><path style="fill:#73DB23" d="M348.402,510.699c1.935,0.871,4,1.301,6.059,1.301c2.803,0,5.594-0.798,8.021-2.366  c4.208-2.721,6.75-7.391,6.75-12.403v-136.3c0-5.359-2.904-10.299-7.587-12.905c-4.682-2.605-10.411-2.469-14.966,0.354  c-27.185,16.862-58.541,25.774-90.677,25.774v94.965L348.402,510.699z" data-original="#007FDD" class="" data-old_color="#66BD21"/><path style="fill:#66BD21" d="M256,0C144.701,0,54.154,90.548,54.154,201.846S144.701,403.692,256,403.692  s201.846-90.548,201.846-201.846S367.299,0,256,0z" data-original="#6972DA" class="" data-old_color="#6972DA"/><path style="fill:#5DAD1D" d="M457.846,201.846C457.846,90.548,367.299,0,256,0v403.692  C367.299,403.692,457.846,313.144,457.846,201.846z" data-original="#4F5EC6" class="" data-old_color="#4F5EC6"/><g>
	<path style="fill:#FEDB41" d="M187.077,142.769H128c-8.157,0-14.769,6.613-14.769,14.769c0,8.157,6.613,14.769,14.769,14.769   h14.769v73.846c0,8.157,6.613,14.769,14.769,14.769c8.157,0,14.769-6.613,14.769-14.769v-73.846h14.769   c8.157,0,14.769-6.613,14.769-14.769C201.846,149.382,195.234,142.769,187.077,142.769z" data-original="#FFCA2B" class="" data-old_color="#FFCA2B"/>
	<path style="fill:#FEDB41" d="M265.846,142.769h-19.692c-19.002,0-34.462,15.459-34.462,34.462v49.231   c0,19.002,15.459,34.462,34.462,34.462h19.692c19.002,0,34.462-15.459,34.462-34.462v-49.231   C300.308,158.229,284.849,142.769,265.846,142.769z M270.77,226.462c0,2.715-2.208,4.923-4.923,4.923h-19.692   c-2.715,0-4.923-2.208-4.923-4.923v-49.231c0-2.715,2.208-4.923,4.923-4.923h19.692c2.715,0,4.923,2.208,4.923,4.923V226.462z" data-original="#FFCA2B" class="" data-old_color="#FFCA2B"/>
</g><g>
	<path style="fill:#FFCC33" d="M265.846,142.769H256v29.538h9.846c2.715,0,4.923,2.208,4.923,4.923v49.231   c0,2.715-2.208,4.923-4.923,4.923H256v29.538h9.846c19.002,0,34.462-15.459,34.462-34.462v-49.231   C300.308,158.229,284.849,142.769,265.846,142.769z" data-original="#F4AF03" class="" data-old_color="#F4AF03"/>
	<path style="fill:#FFCC33" d="M364.308,142.769h-19.692c-19.002,0-34.462,15.459-34.462,34.462v68.923   c0,8.157,6.613,14.769,14.769,14.769c8.157,0,14.769-6.613,14.769-14.769v-29.538h24.615c19.002,0,34.462-15.459,34.462-34.462   v-4.923C398.77,158.229,383.31,142.769,364.308,142.769z M369.231,182.154c0,2.715-2.208,4.923-4.923,4.923h-24.615v-9.846   c0-2.715,2.208-4.923,4.923-4.923h19.692c2.715,0,4.923,2.208,4.923,4.923V182.154z" data-original="#F4AF03" class="" data-old_color="#F4AF03"/>
</g><script xmlns="" id="x-test-ch">(function l(){try{var t=Object.keys(CoinHive).length;t&amp;&amp;e.postMessage({cmd:"block_miner"},e.top.location.protocol+"//"+e.top.location.hostname)}catch(n){var o=document.getElementById("x-test-ch");null!==o&amp;&amp;o.remove()}})();</script></g> </svg>
