<svg height="402pt" viewBox="-7 0 402 402.074" width="402pt" xmlns="http://www.w3.org/2000/svg"><path d="m6.964844 235.65625h235.65625v124.757812c0 22.96875-18.617188 41.585938-41.585938 41.585938h-152.480468c-22.96875 0-41.589844-18.617188-41.589844-41.585938zm0 0" fill="#fdbd40"/><path d="m6.964844 194.070312h235.65625v41.585938h-235.65625zm0 0" fill="#d3843d"/><path d="m131.722656 325.757812h235.65625v27.726563h-235.65625zm0 0" fill="#d3843d"/><path d="m131.722656 353.484375h235.65625v6.929687c0 22.96875-18.617187 41.585938-41.585937 41.585938h-152.480469c-22.96875 0-41.589844-18.617188-41.589844-41.585938zm0 0" fill="#fcf05a"/><path d="m34.691406 117.828125c-3.828125 0-6.933594-3.101563-6.933594-6.929687-.011718-11.480469-9.3125-20.78125-20.792968-20.796876-3.828125 0-6.9296878-3.101562-6.9296878-6.929687s3.1054688-6.929687 6.9296878-6.929687c11.480468-.011719 20.78125-9.316407 20.792968-20.792969 0-3.828125 3.105469-6.929688 6.933594-6.929688s6.929688 3.101563 6.929688 6.929688c.011718 11.476562 9.3125 20.78125 20.792968 20.792969 3.828126 0 6.929688 3.101562 6.929688 6.929687s-3.101562 6.929687-6.929688 6.929687c-11.480468.015626-20.78125 9.316407-20.792968 20.796876 0 3.824218-3.101563 6.929687-6.929688 6.929687zm-6.953125-34.65625c2.632813 1.980469 4.972657 4.320313 6.949219 6.953125 1.980469-2.632812 4.320312-4.976562 6.953125-6.953125-2.632813-1.976563-4.972656-4.316406-6.953125-6.949219-1.976562 2.632813-4.316406 4.972656-6.949219 6.949219zm0 0" fill="#fdbd40"/><path d="m207.964844 194.070312h-166.34375c-11.484375 0-20.792969-9.308593-20.792969-20.792968s9.308594-20.792969 20.792969-20.792969h166.34375c11.484375 0 20.792968 9.308594 20.792968 20.789063v.003906c0 11.484375-9.308593 20.792968-20.792968 20.792968zm0 0" fill="#fdbd40"/><path d="m152.519531 152.484375h-97.035156c0-22.96875 18.617187-41.585937 41.585937-41.585937h97.035157c0 22.964843-18.621094 41.585937-41.585938 41.585937zm0 0" fill="#fcf05a"/><path d="m159.449219 13.863281h228.722656v27.722657h-228.722656zm0 0" fill="#d3843d"/><path d="m270.347656 110.898438c-7.65625 0-13.863281-6.207032-13.863281-13.863282v-97.035156h27.722656v97.035156c0 7.65625-6.207031 13.863282-13.859375 13.863282zm0 0" fill="#fcf05a"/><g fill="#fdbd40"><path d="m298.070312 152.484375c-7.65625 0-13.863281-6.207031-13.863281-13.863281v-138.621094h27.722657v138.621094c.003906 7.65625-6.203126 13.863281-13.859376 13.863281zm0 0"/><path d="m228.757812 83.171875c-15.308593 0-27.722656-12.410156-27.722656-27.722656v-55.449219h55.449219v55.449219c0 15.3125-12.414063 27.722656-27.726563 27.722656zm0 0"/><path d="m298.070312 187.136719-13.269531 49.394531c-2.609375 8 1.757813 16.601562 9.753907 19.214844 1.140624.371094 2.320312.605468 3.515624.703125 8.386719-.671875 14.644532-8.015625 13.972657-16.402344-.097657-1.195313-.332031-2.375-.703125-3.515625zm0 0"/></g></svg>