<svg height="459pt" viewBox="-54 0 459 459.35654" width="459pt" xmlns="http://www.w3.org/2000/svg"><path d="m38.382812 145.402344-30.59375-121.023438c53.890626-22.199218 114.375-22.199218 168.269532 0l-30.59375 121.023438zm0 0" fill="#ceac9a"/><path d="m183.707031 76.566406h91.78125v99.429688h-91.78125zm0 0" fill="#ceac9a"/><path d="m313.734375 76.566406c-4.226563 0-7.648437-3.425781-7.652344-7.648437-.011719-12.667969-10.277343-22.933594-22.945312-22.949219-4.222657 0-7.648438-3.421875-7.648438-7.648438 0-4.222656 3.425781-7.648437 7.648438-7.648437 12.667969-.011719 22.933593-10.277344 22.945312-22.945313 0-4.222656 3.425781-7.648437 7.652344-7.648437 4.222656 0 7.648437 3.421875 7.648437 7.648437.011719 12.667969 10.277344 22.933594 22.945313 22.945313 4.222656 0 7.648437 3.425781 7.648437 7.648437 0 4.226563-3.425781 7.648438-7.648437 7.648438-12.667969.015625-22.933594 10.28125-22.945313 22.949219-.003906 4.222656-3.425781 7.648437-7.648437 7.648437zm-7.671875-38.242187c2.902344 2.183593 5.484375 4.765625 7.671875 7.671875 2.183594-2.90625 4.765625-5.488282 7.667969-7.671875-2.902344-2.183594-5.484375-4.765625-7.667969-7.671875-2.1875 2.90625-4.769531 5.488281-7.671875 7.671875zm0 0" fill="#fdbd40"/><g fill="#5a6470"><path d="m122.519531 237.1875h-61.191406l-22.945313-91.785156h107.082032zm0 0"/><path d="m76.613281 153.050781c-3.800781-.003906-7.019531-2.800781-7.558593-6.5625l-7.648438-53.542969c-.605469-4.179687 2.292969-8.058593 6.472656-8.664062 4.179688-.605469 8.058594 2.292969 8.664063 6.472656 0 .007813 0 .019532.003906.027344l7.648437 53.539062c.59375 4.1875-2.320312 8.0625-6.507812 8.65625-.355469.050782-.714844.074219-1.074219.074219zm0 0"/><path d="m107.230469 153.050781c-4.226563 0-7.65625-3.425781-7.65625-7.65625 0-.359375.027343-.71875.078125-1.074219l7.648437-53.539062c.589844-4.183594 4.460938-7.09375 8.640625-6.5 4.183594.589844 7.09375 4.460938 6.5 8.640625 0 .007813 0 .015625-.003906.023437l-7.648438 53.542969c-.539062 3.761719-3.757812 6.558594-7.558593 6.5625zm0 0"/></g><path d="m91.921875 451.347656c-12.800781 0-23.308594-10.136718-23.765625-22.929687l-6.828125-191.230469h61.1875l-6.828125 191.230469c-.457031 12.792969-10.960938 22.929687-23.765625 22.929687zm0 0" fill="#7d8d9c"/><path d="m252.542969 237.1875h-45.890625l-22.945313-61.191406h91.78125zm0 0" fill="#5a6470"/><path d="m229.597656 451.347656c-8.535156 0-15.539062-6.757812-15.84375-15.285156l-7.101562-198.875h45.890625l-7.101563 198.875c-.304687 8.527344-7.308594 15.285156-15.84375 15.285156zm0 0" fill="#7d8d9c"/><path d="m206.652344 76.566406h15.296875v30.59375h-15.296875zm0 0" fill="#ffe2b0"/><path d="m237.246094 76.566406h15.296875v30.59375h-15.296875zm0 0" fill="#ffe2b0"/><path d="m344.328125 30.675781c-12.667969-.015625-22.933594-10.28125-22.949219-22.949219 0-4.222656-3.421875-7.648437-7.648437-7.648437-4.222657 0-7.648438 3.425781-7.648438 7.648437-.011719 12.667969-10.277343 22.933594-22.945312 22.949219-4.222657 0-7.648438 3.421875-7.648438 7.648438 0 4.222656 3.421875 7.648437 7.648438 7.648437 12.667969.015625 22.933593 10.277344 22.945312 22.945313 0 4.222656 3.425781 7.648437 7.648438 7.648437 4.226562 0 7.648437-3.421875 7.648437-7.648437.015625-12.667969 10.28125-22.929688 22.949219-22.945313 4.222656 0 7.648437-3.425781 7.648437-7.648437 0-4.226563-3.425781-7.648438-7.648437-7.648438zm-30.59375 15.316407c-2.1875-2.902344-4.769531-5.484376-7.671875-7.667969 2.902344-2.1875 5.484375-4.769531 7.671875-7.671875 2.183594 2.902344 4.765625 5.484375 7.667969 7.671875-2.902344 2.183593-5.484375 4.765625-7.667969 7.667969zm0 0"/><path d="m183.472656 26.253906c.933594-3.6875-.988281-7.503906-4.503906-8.949218-55.738281-23.074219-118.355469-23.074219-174.089844 0-3.519531 1.445312-5.441406 5.261718-4.507812 8.949218l53.339844 212.007813 6.804687 190.429687c.617187 17.34375 15.179687 30.90625 32.523437 30.289063 16.480469-.585938 29.703126-13.808594 30.292969-30.289063l6.800781-190.429687zm-16.480468 2.777344-27.484376 108.722656h-23.46875l6.398438-44.808594c.605469-4.179687-2.292969-8.058593-6.46875-8.660156-4.179688-.605468-8.0625 2.292969-8.664062 6.472656-.003907.007813-.003907.015626-.003907.023438l-6.710937 46.972656h-17.332032l-6.710937-46.972656c-.589844-4.183594-4.460937-7.09375-8.640625-6.5-4.183594.589844-7.09375 4.460938-6.503906 8.640625.003906.007813.003906.015625.007812.023437l6.398438 44.808594h-23.46875l-27.488282-108.722656c48.375-18.300781 101.765626-18.300781 150.140626 0zm-58.949219 399.113281c-.320313 8.902344-7.792969 15.863281-16.695313 15.542969-8.457031-.300781-15.242187-7.085938-15.542968-15.542969l-6.550782-183.308593h45.339844zm8.503906-198.605469h-49.246094l-19.121093-76.488281h87.488281zm0 0"/><path d="m283.136719 76.566406c0-4.222656-3.421875-7.648437-7.648438-7.648437h-91.78125c-4.226562 0-7.648437 3.421875-7.652343 7.648437v99.429688c.078124.910156.242187 1.808594.488281 2.6875l22.507812 60.023437 7.058594 197.628907c.464844 12.972656 11.355469 23.109374 24.324219 22.648437 12.324218-.441406 22.210937-10.328125 22.648437-22.648437l7.058594-197.628907 22.511719-60.023437c.246094-.878906.40625-1.777344.484375-2.6875zm-91.78125 7.648438h15.296875v22.945312c0 4.226563 3.421875 7.648438 7.648437 7.648438 4.222657 0 7.648438-3.421875 7.648438-7.648438v-22.945312h15.296875v22.945312c0 4.226563 3.425781 7.648438 7.648437 7.648438 4.226563 0 7.652344-3.421875 7.652344-7.648438v-22.945312h15.296875v84.136718h-76.488281zm46.441406 351.574218c-.164063 4.527344-3.964844 8.066407-8.492187 7.90625-4.300782-.152343-7.75-3.605468-7.90625-7.90625l-6.820313-190.953124h30.039063zm9.445313-206.25h-35.289063l-17.210937-45.890624h69.710937zm0 0"/></svg>