<svg height="409pt" viewBox="-62 0 409 409.007" width="409pt" xmlns="http://www.w3.org/2000/svg"><g fill="#7d8d9c"><path d="m166.359375 117.84375c-1.363281 0-2.695313-.402344-3.828125-1.160156-8.71875-5.8125-23.40625-22.199219-16.597656-42.621094 1.210937-3.632812 5.136718-5.597656 8.769531-4.382812 3.632813 1.210937 5.59375 5.136718 4.382813 8.769531-5.140626 15.421875 10.492187 26.261719 11.15625 26.714843 3.171874 2.148438 4.003906 6.460938 1.855468 9.632813-1.289062 1.902344-3.4375 3.046875-5.738281 3.046875zm0 0"/><path d="m194.085938 117.84375c-1.363282 0-2.695313-.402344-3.828126-1.160156-8.714843-5.8125-23.402343-22.199219-16.59375-42.621094 1.210938-3.632812 5.136719-5.597656 8.769532-4.382812 3.628906 1.210937 5.59375 5.136718 4.382812 8.769531-5.144531 15.421875 10.488282 26.261719 11.15625 26.714843 3.171875 2.148438 4.003906 6.460938 1.855469 9.632813-1.289063 1.902344-3.441406 3.046875-5.742187 3.046875zm0 0"/><path d="m221.816406 117.84375c-1.363281 0-2.695312-.402344-3.828125-1.160156-8.71875-5.8125-23.40625-22.199219-16.597656-42.621094 1.210937-3.632812 5.136719-5.597656 8.769531-4.382812 3.632813 1.210937 5.59375 5.136718 4.382813 8.769531-5.140625 15.421875 10.492187 26.261719 11.15625 26.714843 3.171875 2.148438 4.003906 6.460938 1.855469 9.632813-1.289063 1.902344-3.4375 3.046875-5.738282 3.046875zm0 0"/></g><path d="m.00390625 256.492188h69.32031275v152.507812h-69.32031275zm0 0" fill="#dc93bf"/><path d="m110.917969 228.761719h69.320312v180.238281h-69.320312zm0 0" fill="#dc93bf"/><path d="m110.917969 76.253906c-3.828125 0-6.933594-3.105468-6.933594-6.933594-.011719-11.480468-9.316406-20.78125-20.796875-20.796874-3.828125 0-6.929688-3.101563-6.929688-6.929688s3.101563-6.933594 6.929688-6.933594c11.480469-.011718 20.785156-9.316406 20.796875-20.796875 0-3.828125 3.105469-6.929687 6.933594-6.929687s6.929687 3.101562 6.929687 6.929687c.015625 11.480469 9.316406 20.785157 20.796875 20.796875 3.832031 0 6.933594 3.105469 6.933594 6.933594s-3.105469 6.929688-6.933594 6.929688c-11.480469.015624-20.78125 9.316406-20.796875 20.796874 0 3.832032-3.101562 6.933594-6.929687 6.933594zm-6.953125-34.660156c2.632812 1.976562 4.972656 4.320312 6.953125 6.953125 1.980469-2.632813 4.320312-4.976563 6.953125-6.953125-2.632813-1.980469-4.972656-4.320312-6.953125-6.953125-1.980469 2.632813-4.320313 4.972656-6.953125 6.953125zm0 0" fill="#fdbd40"/><path d="m110.917969 228.761719h69.320312v41.59375h-69.320312zm0 0" fill="#7d8d9c"/><path d="m194.105469 111.449219c-70.527344 0-90.121094 41.058593-90.121094 41.058593s19.59375 41.058594 90.121094 41.058594c70.527343 0 90.117187-41.058594 90.117187-41.058594s-19.589844-41.058593-90.117187-41.058593zm0 0" fill="#f4f4e6"/><path d="m55.460938 83.1875c3.828124 0 6.929687-3.105469 6.929687-6.933594s-3.101563-6.929687-6.929687-6.929687h-13.867188v-13.867188h13.867188c3.828124 0 6.929687-3.101562 6.929687-6.929687s-3.101563-6.933594-6.929687-6.933594h-13.867188v-13.863281h6.933594c3.828125 0 6.929687-3.105469 6.929687-6.933594s-3.101562-6.933594-6.929687-6.933594h-6.933594v-6.929687c0-3.832032-3.101562-6.933594-6.929688-6.933594-3.832031 0-6.933593 3.105469-6.933593 6.933594v6.929687h-6.929688c-3.832031 0-6.933593 3.105469-6.933593 6.933594s3.105468 6.929687 6.933593 6.929687h6.929688v13.867188h-13.863281c-3.828126 0-6.933594 3.101562-6.933594 6.929688 0 3.828124 3.105468 6.933593 6.933594 6.933593h13.863281v13.863281h-13.863281c-3.828126 0-6.933594 3.105469-6.933594 6.933594s3.105468 6.929688 6.933594 6.929688h13.863281v13.867187h-13.863281c-3.828126 0-6.933594 3.101563-6.933594 6.929688s3.105468 6.933593 6.933594 6.933593h13.863281v13.863282h-6.929688c-3.832031 0-6.933593 3.105468-6.933593 6.933594 0 3.828124 3.105468 6.929687 6.933593 6.929687h6.929688v48.527344c0 3.828125 3.105469 6.929687 6.933593 6.929687 3.828126 0 6.929688-3.101562 6.929688-6.929687v-48.527344h6.933594c3.828125 0 6.929687-3.101563 6.929687-6.929687 0-3.828126-3.101562-6.933594-6.929687-6.933594h-6.933594v-13.863282h13.867188c3.828124 0 6.929687-3.105468 6.929687-6.933593s-3.101563-6.929688-6.929687-6.929688h-13.867188v-13.863281zm0 0" fill="#7d8d9c"/><path d="m221.832031 152.507812c0 15.316407-12.414062 27.730469-27.726562 27.730469-15.316407 0-27.730469-12.414062-27.730469-27.730469 0-15.3125 12.414062-27.726562 27.730469-27.726562 15.3125 0 27.726562 12.414062 27.726562 27.726562zm0 0" fill="#7d8d9c"/><path d="m13.867188 187.167969h41.59375v69.324219h-41.59375zm0 0" fill="#5a6470"/></svg>