<svg height="464pt" viewBox="-44 0 464 464.00031" width="464pt" xmlns="http://www.w3.org/2000/svg"><path d="m261.601562 455.519531c-8.875 5.550781-19.132812 8.488281-29.601562 8.480469-10.464844.007812-20.722656-2.929688-29.597656-8.480469-71.175782-44.5-114.40625-122.523437-114.402344-206.464843v-57.054688c0-79.527344 64.472656-144 144-144 79.53125 0 144 64.472656 144 144v57.054688c.007812 83.941406-43.226562 161.964843-114.398438 206.464843zm0 0" fill="#daae8b"/><path d="m232 0c39.765625 0 72 32.234375 72 72v24h-144v-24c0-39.765625 32.234375-72 72-72zm0 0" fill="#e3c067"/><path d="m353.136719 224h22.863281v-32c0-79.527344-64.46875-144-144-144-79.527344 0-144 64.472656-144 144v24l72-72c51.222656 51.222656 120.695312 80 193.136719 80zm0 0" fill="#e3c067"/><path d="m28.96875 459.03125 83.03125-83.03125-24-24-83.03125 83.03125c-6.625 6.628906-6.625 17.371094 0 24 6.628906 6.625 17.371094 6.625 24 0zm0 0" fill="#bb8254"/><path d="m80 360v-24c0-26.507812 21.492188-48 48-48 26.511719 0 48 21.492188 48 48s-21.488281 48-48 48h-24zm0 0" fill="#2a1e1d"/><path d="m56.003906 384 24-24 24.003906 24-24.003906 24.003906zm0 0" fill="#a9bfd1"/><g fill="#2a1e1d"><path d="m288 280c-22.078125-.027344-39.972656-17.917969-40-40h16c0 13.253906 10.746094 24 24 24s24-10.746094 24-24h16c-.027344 22.082031-17.917969 39.972656-40 40zm0 0"/><path d="m176 280c-22.078125-.027344-39.972656-17.917969-40-40h16c0 13.253906 10.746094 24 24 24s24-10.746094 24-24h16c-.027344 22.082031-17.917969 39.972656-40 40zm0 0"/></g></svg>