<svg height="402pt" viewBox="0 0 402 402.07767" width="402pt" xmlns="http://www.w3.org/2000/svg"><path d="m388.175781 124.761719c0-22.96875-40.339843-41.585938-90.105469-41.585938-49.761718 0-90.101562 18.617188-90.101562 41.585938v27.722656c0 22.96875 40.339844 41.585937 90.101562 41.585937 49.765626 0 90.105469-18.617187 90.105469-41.585937zm0 0" fill="#f47181"/><path d="m388.175781 124.761719c0-22.96875-40.339843-41.585938-90.105469-41.585938-49.761718 0-90.101562 18.617188-90.101562 41.585938s40.339844 41.585937 90.101562 41.585937c49.765626 0 90.105469-18.617187 90.105469-41.585937zm0 0" fill="#f98c96"/><path d="m34.695312 152.484375h83.171876v138.621094h-83.171876zm0 0" fill="#7d8d9c"/><path d="m104.003906 124.761719h-55.449218v-90.105469l48.519531 27.726562zm0 0" fill="#f47181"/><path d="m.0390625 304.96875h401.9960935s-43.695312 97.03125-200.996094 97.03125c-157.304687 0-200.9999995-97.03125-200.9999995-97.03125zm0 0" fill="#f47181"/><path d="m201.039062 381.207031c-74.667968 0-120.425781-23.40625-145.667968-43.046875-3.011719-2.363281-3.535156-6.722656-1.171875-9.730468 2.351562-2.996094 6.675781-3.535157 9.6875-1.207032 23.523437 18.300782 66.417969 40.125 137.152343 40.125 3.828126 0 6.929688 3.101563 6.929688 6.929688s-3.101562 6.929687-6.929688 6.929687zm0 0" fill="#f4f4e6"/><path d="m.0390625 304.96875 103.9648435-71.789062c15.65625-11.023438 38.617188-14.867188 55.449219-5.984376l41.585937 23.929688 34.65625-23.929688c16.761719-10.113281 39.074219-4.820312 55.445313 5.984376l110.898437 71.789062zm0 0" fill="#f98c96"/><path d="m242.625 381.207031h-13.863281c-3.828125 0-6.929688-3.101562-6.929688-6.929687s3.101563-6.929688 6.929688-6.929688h13.863281c3.828125 0 6.929688 3.101563 6.929688 6.929688s-3.101563 6.929687-6.929688 6.929687zm0 0" fill="#f4f4e6"/><path d="m48.554688 124.761719h55.449218v27.722656h-55.449218zm0 0" fill="#cfdfe8"/><path d="m388.175781 41.589844c0-22.96875-40.339843-41.58593775-90.105469-41.58593775-49.761718 0-90.101562 18.61718775-90.101562 41.58593775s40.339844 41.585937 90.101562 41.585937c49.765626 0 90.105469-18.617187 90.105469-41.585937zm0 0" fill="#e6f5fc"/><path d="m353.519531 124.761719c0-11.484375-24.824219-20.792969-55.449219-20.792969-30.621093 0-55.445312 9.308594-55.445312 20.792969s24.824219 20.792969 55.445312 20.792969c30.625 0 55.449219-9.308594 55.449219-20.792969zm0 0" fill="#fff69a"/><path d="m318.871094 34.65625c-3.828125.003906-6.933594-3.09375-6.9375-6.925781 0-2.179688 1.027344-4.238281 2.773437-5.546875l27.722657-20.792969c3.058593-2.300781 7.402343-1.683594 9.703124 1.375 2.300782 3.0625 1.683594 7.40625-1.375 9.707031-.003906 0-.007812.003906-.007812.003906l-27.726562 20.792969c-1.195313.902344-2.652344 1.390625-4.152344 1.386719zm0 0" fill="#aabece"/><path d="m332.730469 55.449219c-3.828125.003906-6.933594-3.101563-6.933594-6.929688 0-2.105469.957031-4.09375 2.601563-5.410156l34.65625-27.726563c2.988281-2.386718 7.347656-1.902343 9.738281 1.085938s1.90625 7.347656-1.082031 9.738281l-34.65625 27.722657c-1.226563.988281-2.75 1.523437-4.324219 1.519531zm0 0" fill="#aabece"/><path d="m152.519531 103.96875c-3.824219 0-6.929687-3.101562-6.929687-6.929688-.011719-11.480468-9.3125-20.78125-20.792969-20.792968-3.828125 0-6.929687-3.105469-6.929687-6.933594s3.101562-6.929688 6.929687-6.929688c11.480469-.011718 20.78125-9.3125 20.792969-20.792968 0-3.828125 3.105468-6.929688 6.929687-6.929688 3.828125 0 6.933594 3.101563 6.933594 6.929688.011719 11.480468 9.3125 20.78125 20.792969 20.792968 3.828125 0 6.929687 3.105469 6.929687 6.929688 0 3.832031-3.105469 6.933594-6.929687 6.933594-11.480469.011718-20.78125 9.3125-20.792969 20.792968 0 3.828126-3.105469 6.929688-6.933594 6.929688zm-6.949219-34.65625c2.632813 1.980469 4.972657 4.320312 6.949219 6.953125 1.980469-2.632813 4.320313-4.972656 6.953125-6.953125-2.632812-1.976562-4.972656-4.316406-6.953125-6.949219-1.976562 2.632813-4.316406 4.972657-6.949219 6.949219zm0 0" fill="#fdbd40"/></svg>